<svg width="100" height="100" viewBox="0 0 100 100" xmlns="http://www.w3.org/2000/svg">
  <!-- Circuit board pattern -->
  <defs>
    <pattern id="circuit" x="0" y="0" width="100" height="100" patternUnits="userSpaceOnUse">
      <!-- Horizontal lines -->
      <line x1="0" y1="25" x2="100" y2="25" stroke="#ffffff" stroke-width="0.5" />
      <line x1="0" y1="50" x2="100" y2="50" stroke="#ffffff" stroke-width="0.5" />
      <line x1="0" y1="75" x2="100" y2="75" stroke="#ffffff" stroke-width="0.5" />
      
      <!-- Vertical lines -->
      <line x1="25" y1="0" x2="25" y2="100" stroke="#ffffff" stroke-width="0.5" />
      <line x1="50" y1="0" x2="50" y2="100" stroke="#ffffff" stroke-width="0.5" />
      <line x1="75" y1="0" x2="75" y2="100" stroke="#ffffff" stroke-width="0.5" />
      
      <!-- Nodes -->
      <circle cx="25" cy="25" r="2" fill="#F39C12" />
      <circle cx="75" cy="25" r="2" fill="#F39C12" />
      <circle cx="50" cy="50" r="3" fill="#ffffff" />
      <circle cx="25" cy="75" r="2" fill="#F39C12" />
      <circle cx="75" cy="75" r="2" fill="#F39C12" />
      
      <!-- Connection lines -->
      <line x1="25" y1="25" x2="50" y2="50" stroke="#F39C12" stroke-width="0.8" />
      <line x1="75" y1="25" x2="50" y2="50" stroke="#F39C12" stroke-width="0.8" />
      <line x1="25" y1="75" x2="50" y2="50" stroke="#F39C12" stroke-width="0.8" />
      <line x1="75" y1="75" x2="50" y2="50" stroke="#F39C12" stroke-width="0.8" />
      
      <!-- Curved Connections -->
      <path d="M25,25 Q0,37.5 25,50" stroke="#ffffff" stroke-width="0.5" fill="none" />
      <path d="M75,25 Q100,37.5 75,50" stroke="#ffffff" stroke-width="0.5" fill="none" />
      <path d="M25,75 Q0,62.5 25,50" stroke="#ffffff" stroke-width="0.5" fill="none" />
      <path d="M75,75 Q100,62.5 75,50" stroke="#ffffff" stroke-width="0.5" fill="none" />
      
      <!-- Smaller details -->
      <circle cx="12.5" cy="37.5" r="1" fill="#F39C12" />
      <circle cx="87.5" cy="37.5" r="1" fill="#F39C12" />
      <circle cx="12.5" cy="62.5" r="1" fill="#F39C12" />
      <circle cx="87.5" cy="62.5" r="1" fill="#F39C12" />
    </pattern>
  </defs>
  
  <!-- Background rectangle with pattern -->
  <rect x="0" y="0" width="100" height="100" fill="url(#circuit)" />
</svg> 