<?xml version="1.0" standalone="no"?>
<!DOCTYPE svg PUBLIC "-//W3C//DTD SVG 20010904//EN"
 "http://www.w3.org/TR/2001/REC-SVG-20010904/DTD/svg10.dtd">
<svg version="1.0" xmlns="http://www.w3.org/2000/svg"
 width="1024.000000pt" height="1024.000000pt" viewBox="0 0 1024.000000 1024.000000"
 preserveAspectRatio="xMidYMid meet">

<g transform="translate(0.000000,1024.000000) scale(0.100000,-0.100000)"
fill="#000000" stroke="none">
<path d="M2740 6968 c-13 -14 -20 -35 -20 -59 0 -49 32 -75 103 -84 148 -20
365 -111 493 -206 133 -100 263 -239 334 -359 66 -113 124 -281 136 -400 12
-116 16 -133 39 -156 24 -24 57 -30 90 -18 25 10 46 61 41 97 -3 18 -8 59 -11
92 -14 137 -76 330 -143 445 -91 156 -273 354 -413 448 -145 97 -324 174 -483
206 -104 22 -141 21 -166 -6z"/>
<path d="M6664 6661 c3 -5 6 -431 7 -947 0 -531 5 -967 10 -1004 22 -149 101
-344 189 -466 86 -119 189 -209 310 -269 65 -33 234 -92 305 -106 28 -6 64
-14 80 -17 41 -9 369 -8 425 2 64 11 210 52 287 81 233 88 440 297 533 536 16
41 39 120 51 175 23 99 23 103 26 1062 l4 962 -280 0 -280 0 -3 -952 c-3 -892
-4 -956 -21 -1003 -58 -157 -119 -231 -248 -293 -102 -51 -194 -67 -329 -59
-153 10 -248 47 -345 138 -70 66 -104 123 -136 229 l-23 75 -4 933 -3 932
-280 0 c-161 0 -278 -4 -275 -9z"/>
<path d="M4928 6533 c-25 -71 -104 -281 -173 -468 -70 -187 -160 -428 -200
-535 -40 -107 -106 -285 -148 -395 -41 -110 -139 -371 -217 -580 -78 -209
-165 -443 -194 -520 l-52 -140 80 -3 c45 -1 175 1 291 5 l209 8 88 240 c48
132 95 259 104 283 l16 42 570 -2 571 -3 22 -60 c12 -33 59 -160 105 -282 l83
-222 294 -3 c161 -2 293 0 293 4 0 7 -66 182 -271 723 -17 44 -50 132 -74 195
-39 106 -139 370 -543 1440 l-149 395 -329 3 -329 2 -47 -127z m429 -703 c105
-276 300 -806 306 -827 l5 -23 -372 0 -373 0 132 353 c72 193 156 418 186 499
30 81 57 144 60 140 3 -4 28 -68 56 -142z"/>
<path d="M2724 6579 c-24 -12 -44 -49 -44 -80 0 -25 43 -69 68 -69 28 0 168
-48 227 -78 135 -67 275 -200 336 -317 43 -81 64 -151 78 -253 11 -88 29 -112
82 -112 76 0 95 64 63 218 -33 163 -101 289 -219 408 -130 132 -236 200 -390
252 -105 36 -171 46 -201 31z"/>
<path d="M1700 6453 c-217 -243 -323 -624 -265 -957 67 -383 310 -740 640
-938 141 -85 316 -155 430 -174 158 -26 274 -28 405 -8 59 9 212 63 270 96 93
51 251 168 262 194 9 20 7 35 -12 82 -72 174 -304 514 -465 680 -44 45 -85 82
-92 82 -6 0 -26 -25 -43 -55 l-31 -54 20 -38 c11 -21 54 -81 96 -133 158 -195
325 -432 325 -462 0 -16 -32 -8 -143 38 -264 107 -484 265 -716 512 -247 263
-402 515 -506 825 -26 76 -45 140 -43 142 2 2 42 -21 88 -51 158 -104 327
-250 439 -382 39 -45 71 -87 71 -92 0 -6 6 -10 14 -10 18 0 86 76 86 96 0 46
-93 167 -225 292 -120 113 -206 179 -369 281 -158 100 -175 102 -236 34z"/>
<path d="M2768 6046 c-90 -32 -138 -93 -147 -186 l-6 -60 -105 -81 c-58 -44
-124 -95 -147 -112 -46 -35 -57 -52 -45 -72 15 -28 246 -275 254 -273 4 2 61
81 125 177 l118 175 55 18 c116 39 170 103 172 205 3 97 -57 182 -146 208 -60
18 -80 18 -128 1z"/>
<path d="M1724 4692 c-18 -12 -30 -40 -113 -276 -44 -126 -82 -230 -84 -232
-2 -2 -21 -6 -43 -10 -77 -12 -128 -58 -154 -138 -17 -52 -8 -135 16 -153 14
-10 133 -13 615 -13 554 0 598 1 618 18 84 69 -67 281 -214 301 -39 6 -40 7
-65 79 -27 76 -38 88 -108 115 -98 39 -291 169 -399 269 -57 53 -53 51 -69 40z"/>
</g>
</svg>
